<svg xmlns="http://www.w3.org/2000/svg" width="1200" height="630" viewBox="0 0 1200 630">
  <defs>
    <linearGradient id="bg" x1="0" y1="0" x2="1" y2="1">
      <stop offset="0%" stop-color="#0f172a"/>
      <stop offset="100%" stop-color="#1e1b4b"/>
    </linearGradient>
    <linearGradient id="accent" x1="0" y1="0" x2="1" y2="1">
      <stop offset="0%" stop-color="#5850ec"/>
      <stop offset="100%" stop-color="#7c3aed"/>
    </linearGradient>
  </defs>
  <rect width="1200" height="630" fill="url(#bg)"/>
  <!-- Chart bars -->
  <rect x="250" y="380" width="70" height="140" rx="8" fill="url(#accent)" opacity="0.6"/>
  <rect x="340" y="290" width="70" height="230" rx="8" fill="url(#accent)" opacity="0.75"/>
  <rect x="430" y="210" width="70" height="310" rx="8" fill="url(#accent)"/>
  <rect x="520" y="150" width="70" height="370" rx="8" fill="url(#accent)" opacity="0.5"/>
  <rect x="610" y="180" width="70" height="340" rx="8" fill="url(#accent)" opacity="0.65"/>
  <rect x="700" y="280" width="70" height="240" rx="8" fill="url(#accent)" opacity="0.8"/>
  <!-- Trend line -->
  <polyline points="285,400 375,310 465,230 555,170 645,200 735,300" fill="none" stroke="#4ade80" stroke-width="5" stroke-linecap="round" stroke-linejoin="round"/>
  <polygon points="735,300 725,325 748,320" fill="#4ade80"/>
  <!-- Grid lines -->
  <line x1="200" y1="420" x2="800" y2="420" stroke="#334155" stroke-width="1" stroke-dasharray="8,8"/>
  <line x1="200" y1="320" x2="800" y2="320" stroke="#334155" stroke-width="1" stroke-dasharray="8,8"/>
  <line x1="200" y1="220" x2="800" y2="220" stroke="#334155" stroke-width="1" stroke-dasharray="8,8"/>
  <!-- Title -->
  <text x="600" y="90" font-family="system-ui, -apple-system, sans-serif" font-size="56" fill="#e2e8f0" text-anchor="middle" font-weight="bold">Plausible Community Edition</text>
  <text x="600" y="130" font-family="system-ui, -apple-system, sans-serif" font-size="28" fill="#94a3b8" text-anchor="middle">Privacy-Friendly Web Analytics — Railway Template</text>
  <!-- Features -->
  <rect x="870" y="200" width="240" height="40" rx="20" fill="url(#accent)" opacity="0.3"/>
  <text x="990" y="226" font-family="system-ui, -apple-system, sans-serif" font-size="16" fill="#e2e8f0" text-anchor="middle">🧘 Privacy-First</text>
  <rect x="870" y="260" width="240" height="40" rx="20" fill="url(#accent)" opacity="0.3"/>
  <text x="990" y="286" font-family="system-ui, -apple-system, sans-serif" font-size="16" fill="#e2e8f0" text-anchor="middle">✨ ClickHouse-Powered</text>
  <rect x="870" y="320" width="240" height="40" rx="20" fill="url(#accent)" opacity="0.3"/>
  <text x="990" y="346" font-family="system-ui, -apple-system, sans-serif" font-size="16" fill="#e2e8f0" text-anchor="middle">🚀 One-Click Deploy</text>
  <rect x="870" y="380" width="240" height="40" rx="20" fill="url(#accent)" opacity="0.3"/>
  <text x="990" y="406" font-family="system-ui, -apple-system, sans-serif" font-size="16" fill="#e2e8f0" text-anchor="middle">⚡ GDPR-Compliant</text>
</svg>
